<svg xmlns="http://www.w3.org/2000/svg" xmlns:xlink="http://www.w3.org/1999/xlink" width="103" height="115" viewBox="0 0 27.252 30.427"><defs><linearGradient id="c"><stop offset="0" stop-color="#c9c9c9"/><stop offset=".402" stop-color="#cacaca"/><stop offset=".935" stop-color="#f4f4f4"/><stop offset="1" stop-color="#f7f7f7"/></linearGradient><linearGradient id="b"><stop offset="0" stop-color="#c9c9c9"/><stop offset="1" stop-color="#f7f7f7"/></linearGradient><linearGradient id="a"><stop offset="0" stop-color="#fffad8"/><stop offset=".331" stop-color="#fffad8" stop-opacity=".991"/><stop offset=".511" stop-color="#ffff49"/><stop offset="1" stop-color="#fffad8"/></linearGradient><linearGradient xlink:href="#b" id="g" x1="5.945" y1="279.121" x2="11.587" y2="291.251" gradientUnits="userSpaceOnUse"/><linearGradient xlink:href="#c" id="e" x1="7.294" y1="295.739" x2="8.415" y2="281.467" gradientUnits="userSpaceOnUse"/><linearGradient xlink:href="#b" id="f" x1="7.75" y1="279.652" x2="10.785" y2="291.619" gradientUnits="userSpaceOnUse"/><linearGradient xlink:href="#b" id="h" x1="7.305" y1="277.476" x2="8.379" y2="280.661" gradientUnits="userSpaceOnUse"/><radialGradient xlink:href="#a" id="d" cx="13.626" cy="280.171" fx="13.626" fy="280.171" r="13.55" gradientTransform="matrix(1 0 0 1.00684 0 -1.916)" gradientUnits="userSpaceOnUse"/></defs><path d="M13.883 293.708a.049.049 0 00.049-.048c.011-.732.167-1.067.304-1.363.08-.173.157-.337.19-.557.05-.313.003-.534-.042-.747a2.047 2.047 0 01-.057-.655c.013-.154.068-.32.132-.514.092-.28.196-.597.21-.982.022-.659-.077-1.014-.149-1.273-.057-.205-.097-.35-.055-.548l2.303 6.272c.007.02.026.032.045.032l.012-.001a.049.049 0 00.037-.054l-.807-6.403 1.866 4.235a.049.049 0 00.045.029.056.056 0 00.018-.003.05.05 0 00.027-.063l-1.572-4.418c.195.225.367.36.45.41.518.313.628.66.744 1.026.082.259.167.527.398.79.14.159.326.286.523.42.327.224.665.455.8.845.08.232.51 1.399 1.179 1.631a.047.047 0 00.053-.014.05.05 0 00.005-.056c-.354-.639-.385-1.007-.413-1.332a1.965 1.965 0 00-.112-.58c-.113-.296-.263-.463-.407-.626-.129-.144-.262-.293-.375-.537-.065-.14-.1-.313-.14-.512-.06-.289-.127-.616-.307-.956-.308-.582-.57-.84-.76-1.028-.15-.148-.255-.252-.318-.44l5.1 4.265c.01.007.02.012.032.012a.05.05 0 00.033-.014.05.05 0 00.005-.065l-3.876-5.139 3.718 2.728a.05.05 0 00.028.009.047.047 0 00.039-.019.05.05 0 00-.007-.068l-3.541-3.022c.28.096.498.127.598.129.603.01.87.254 1.152.513.2.183.406.373.738.485.198.067.423.083.661.1.394.029.802.059 1.111.329.16.139.99.833 1.665.833a.862.862 0 00.166-.015.05.05 0 00.016-.09c-.624-.375-.834-.679-1.02-.946-.109-.157-.212-.306-.384-.446-.245-.199-.458-.269-.663-.336-.183-.06-.373-.122-.592-.277-.126-.089-.242-.22-.376-.373-.194-.22-.415-.47-.739-.673-.555-.35-.91-.44-1.169-.508-.207-.053-.353-.091-.507-.233l6.53 1.124.008.001c.022 0 .041-.014.047-.035a.05.05 0 00-.028-.059l-5.908-2.498 4.574.49h.005a.049.049 0 00.048-.042.05.05 0 00-.04-.055l-4.576-.836c.287-.058.488-.14.575-.188.256-.143.489-.21.732-.21.182 0 .346.036.527.076.166.036.355.078.562.078.105 0 .207-.01.31-.032.206-.042.41-.14.624-.246.296-.144.601-.293.928-.293.066 0 .133.006.197.018.133.026.484.086.873.086.515 0 .892-.1 1.119-.3a.049.049 0 00-.031-.085c-.727-.011-1.06-.168-1.353-.306-.172-.081-.335-.158-.554-.193a1.668 1.668 0 00-.26-.02c-.181 0-.333.032-.489.065a2.19 2.19 0 01-.487.063c-.05 0-.102-.002-.155-.007-.153-.013-.318-.069-.51-.133-.278-.093-.593-.198-.975-.211a5.974 5.974 0 00-.185-.003c-.446 0-.737.061-.94.114l-.14.038c-.145.041-.26.074-.385.074a.72.72 0 01-.159-.017l6.22-2.318a.049.049 0 00.03-.058.048.048 0 00-.052-.037l-6.356.813 4.203-1.88a.05.05 0 00-.02-.094.048.048 0 00-.016.003l-4.359 1.575a2.18 2.18 0 00.395-.444c.31-.52.653-.631 1.017-.748.257-.083.523-.168.785-.401.158-.14.284-.329.418-.528.222-.33.451-.67.838-.804.23-.08 1.388-.515 1.618-1.188.007-.02.001-.04-.014-.054a.046.046 0 00-.031-.011.049.049 0 00-.024.006c-.634.356-1 .388-1.323.416a1.94 1.94 0 00-.575.112c-.294.114-.46.265-.62.41-.144.13-.292.264-.535.378-.139.066-.31.101-.508.142-.287.06-.612.127-.95.308-.577.31-.833.574-1.02.766-.149.154-.256.264-.458.328l4.242-5.147a.049.049 0 00-.038-.08c-.01 0-.02.002-.03.01l-5.1 3.905 2.707-3.746a.05.05 0 00-.04-.078.048.048 0 00-.036.018l-3.008 3.576c.09-.275.12-.486.122-.583.01-.608.252-.877.51-1.161.181-.201.37-.41.48-.743.067-.2.083-.427.1-.667.029-.397.058-.807.326-1.119.16-.185.947-1.145.813-1.844a.05.05 0 00-.04-.04h-.008a.048.048 0 00-.042.024c-.372.628-.673.84-.94 1.027-.155.11-.303.214-.442.387-.197.246-.266.46-.333.668-.06.184-.121.375-.275.596a2.393 2.393 0 01-.37.378c-.219.196-.467.419-.669.745-.346.56-.437.917-.503 1.178-.052.202-.09.348-.221.499l1.119-6.595a.05.05 0 00-.048-.057.048.048 0 00-.045.03l-2.48 5.951.486-4.607a.05.05 0 00-.041-.053h-.007a.049.049 0 00-.048.04l-.829 4.607a2.188 2.188 0 00-.185-.57c-.293-.53-.216-.886-.134-1.261.057-.266.117-.541.047-.886-.042-.207-.14-.412-.244-.628-.173-.358-.35-.728-.273-1.133.046-.24.252-1.467-.212-2.007a.048.048 0 00-.053-.014.049.049 0 00-.032.045c-.011.732-.167 1.067-.304 1.363-.08.173-.157.338-.191.557-.049.314-.002.534.043.748.04.19.08.386.057.654a2.402 2.402 0 01-.132.515c-.092.28-.197.597-.21.982-.022.659.077 1.014.148 1.273.057.202.097.349.056.548l-2.303-6.272a.048.048 0 00-.045-.032h-.012a.049.049 0 00-.037.054l.807 6.403-1.866-4.234a.049.049 0 00-.045-.03.056.056 0 00-.018.004.05.05 0 00-.027.062l1.572 4.417a2.201 2.201 0 00-.45-.41c-.519-.312-.628-.658-.744-1.025-.082-.259-.167-.527-.398-.79-.14-.159-.326-.286-.523-.42-.327-.224-.665-.455-.8-.845-.08-.231-.51-1.398-1.179-1.63a.048.048 0 00-.053.014.05.05 0 00-.005.055c.354.64.385 1.008.413 1.333.016.19.032.371.111.579.114.296.263.464.408.626.129.144.262.293.375.537.065.14.1.313.14.513.06.288.127.616.307.955.307.582.569.84.76 1.028.148.146.254.252.318.44l-5.1-4.265a.052.052 0 00-.032-.011.05.05 0 00-.033.013.05.05 0 00-.005.065l3.876 5.139-3.718-2.727a.05.05 0 00-.029-.009.047.047 0 00-.038.019.05.05 0 00.007.067l3.54 3.022a2.188 2.188 0 00-.597-.129c-.603-.01-.87-.254-1.152-.513-.2-.183-.406-.373-.737-.484-.2-.067-.424-.084-.662-.101-.394-.029-.802-.059-1.111-.329-.16-.139-.991-.833-1.665-.833a.857.857 0 00-.166.015.05.05 0 00-.039.04.05.05 0 00.023.05c.624.376.834.679 1.02.946.109.158.212.306.384.446.244.199.457.269.663.336.183.06.372.122.592.277.125.09.241.22.376.373.194.22.415.47.739.673.556.35.91.44 1.169.508.205.053.353.091.507.234l-6.53-1.125a.048.048 0 00-.055.034.05.05 0 00.027.06l5.909 2.498-4.574-.49h-.005a.049.049 0 00-.009.098l4.576.835c-.287.058-.488.14-.574.188-.256.143-.489.21-.732.21-.182 0-.347-.036-.527-.076-.175-.038-.356-.078-.561-.078-.106 0-.208.01-.312.032-.205.042-.408.14-.623.246-.296.144-.602.294-.929.294-.066 0-.132-.006-.196-.02a4.843 4.843 0 00-.875-.085c-.514 0-.89.1-1.117.299a.049.049 0 00.031.086c.727.01 1.06.168 1.353.306.172.081.335.158.553.192.09.014.175.021.26.021.182 0 .335-.032.49-.065.139-.03.296-.064.487-.064.05 0 .103.002.155.007.153.014.318.07.51.133.278.094.593.199.975.212l.184.003a3.52 3.52 0 001.08-.153c.145-.04.26-.073.385-.073.053 0 .105.006.16.017L.6 283.336a.05.05 0 00.016.095h.006l6.356-.813-4.203 1.88a.049.049 0 00.02.094l.016-.003 4.358-1.574a2.16 2.16 0 00-.394.443c-.31.52-.654.631-1.017.748-.258.083-.524.168-.785.401-.158.14-.284.329-.418.528-.222.329-.451.67-.838.804-.23.08-1.387.514-1.619 1.188-.006.02 0 .04.015.053.009.007.02.012.031.012a.049.049 0 00.024-.006c.634-.356 1-.388 1.323-.416.19-.016.369-.032.575-.112.293-.114.46-.265.62-.411.144-.13.292-.264.535-.378.139-.065.31-.1.508-.141.286-.06.612-.127.949-.308.578-.31.834-.574 1.02-.767.151-.155.258-.265.46-.328l-4.243 5.148a.049.049 0 00.038.08c.01 0 .02-.003.03-.01l5.1-3.905-2.707 3.745a.049.049 0 00.04.078.048.048 0 00.036-.017l3.008-3.576a2.19 2.19 0 00-.122.583c-.01.608-.252.876-.51 1.16-.181.202-.37.41-.48.744-.067.2-.083.427-.1.667-.029.397-.058.807-.326 1.119-.16.185-.947 1.145-.813 1.844a.05.05 0 00.048.04A.049.049 0 007.2 292c.372-.628.673-.84.939-1.027.156-.11.303-.213.442-.387.198-.246.267-.46.334-.668.06-.185.121-.375.275-.596.088-.127.219-.244.37-.38.219-.195.466-.417.669-.744.346-.56.437-.916.503-1.177.053-.205.09-.35.22-.499l-1.118 6.595a.049.049 0 00.048.057.048.048 0 00.045-.03l2.479-5.951-.485 4.607a.05.05 0 00.041.053.049.049 0 00.055-.04l.829-4.608c.057.286.137.485.184.57.294.531.217.886.135 1.262-.057.266-.117.54-.048.886.042.207.14.411.245.627.172.359.35.729.273 1.134-.046.24-.252 1.468.212 2.006.009.011.023.017.036.017z" fill="url(#d)" transform="translate(0 -266.573)"/><path d="M20.325 14.155c-.282 3.722-3.506 6.509-7.2 6.225-3.695-.284-6.461-3.53-6.18-7.253.282-3.722 3.506-6.509 7.2-6.225 3.695.284 6.461 3.531 6.18 7.253z" fill="none" stroke="#4d4d4d" stroke-width=".212" stroke-linecap="round" stroke-linejoin="round"/><path d="M9.64 9.92c.575.38 1.05-.065 1.575-.305.365-.166 1.115-.719 1.673-.124.345-.677 1.05-.991 1.64-.892.59.1 1.362.148 1.608-.52M14.807 11.457c.492-1.074 1.312-.859 2.067-.66.754.198 1.018-.473.967-.595-.163-.397-1.492-.892-2.608-.38-2.316 1.063-.557 4.577-.557 4.577" fill="none" stroke="#4d4d4d" stroke-width=".212" stroke-linecap="round" stroke-linejoin="round"/><path d="M17.218 11.144c-.14.487-.55 1.024-1.345 1.123-.57.071-.746-.033-.926.248-.132-.496.172-1.222.647-1.47.476-.248 1.23-.05 1.624.099z" fill="none" stroke="#4d4d4d" stroke-width=".212" stroke-linecap="round" stroke-linejoin="round"/><path d="M15.93 12.06c.374 0 .677-.317.677-.71a.733.733 0 00-.115-.397c-.314-.045-.645-.04-.898.091a1.102 1.102 0 00-.34.29v.016c0 .393.303.71.677.71z" fill="none" stroke="#4d4d4d" stroke-width=".212" stroke-linecap="round" stroke-linejoin="round"/><path d="M15.925 11.606a.281.281 0 010-.564c.154 0 .28.126.28.282a.281.281 0 01-.28.282zM12.327 12.166c-.983-.647-1.564-.026-2.1.546-.534.572-1.111.145-1.133.014-.07-.423.794-1.554 2.01-1.718.775-.104 1.347.194 1.766.657" fill="none" stroke="#4d4d4d" stroke-width=".212" stroke-linecap="round" stroke-linejoin="round"/><path d="M10.12 13.19c.374.339 1.005.574 1.731.232.521-.245.615-.427.916-.286-.15-.49-.79-.943-1.325-.899-.533.045-1.068.617-1.323.953z" fill="none" stroke="#4d4d4d" stroke-width=".212" stroke-linecap="round" stroke-linejoin="round"/><path d="M11.694 13.278c-.317.2-.741.093-.948-.24a.736.736 0 01-.112-.398c.242-.206.525-.38.808-.403.143-.012.294.013.44.064l.01.013c.207.332.118.764-.198.964z" fill="none" stroke="#4d4d4d" stroke-width=".212" stroke-linecap="round" stroke-linejoin="round"/><path d="M11.318 12.929a.278.278 0 01-.238-.133.283.283 0 01.237-.431.281.281 0 01.001.564zM17.218 11.144s.542.371 1.124-.025c-.205.256-2.137.986-1.624 2.85.435 1.578 2.198 1.388 2.198 1.388M13.47 14.663s-.337.583.16.665c.324.054.455-.004.525.02.152.054.201.24.529.116.377-.142.23-.252.386-.409.155-.156.393-.243.467-.491.074-.248-.23-.463-.23-.463M15.07 16.212c-.238.178-.304-.475-.386-.748M15.127 19.034c.221-.075.566-.075.775.037.148-.273.295-.397.492-.471M17.886 15.226c-.172.273-.55.688-.717.809M12.167 17.291c.304.101.86.187 1.065.175M16.111 16.63c-.418.222-.35.393-.756.554-.414.136-.47-.04-.933.056-.464.095-.709.308-1.19.226.697.125.896.485 1.659.44.153.004.127-.003.296-.048.229-.043.421-.1.59-.202.706-.333.796-.96 1.01-1.188.169-.178.382-.433.382-.433-.32.371-.64.371-1.058.594z" fill="none" stroke="#4d4d4d" stroke-width=".212" stroke-linecap="round" stroke-linejoin="round"/><path d="M13.232 17.466c.853-.146 1.133-.673 1.39-.762.298-.103.2.13.556-.02.369-.111.146-.228.441-.34.255-.096.8.124 1.55-.31-.32.372-.64.372-1.058.595-.418.223-.35.394-.756.555-.414.136-.47-.04-.933.056-.464.095-.709.308-1.19.226zM9.79 13.87c.289.15 2.35.04 2.62 1.955.23 1.62-1.46 2.159-1.46 2.159" fill="none" stroke="#4d4d4d" stroke-width=".212" stroke-linecap="round" stroke-linejoin="round"/><path d="M11.083 284.522c1.624 4.358 1.195 9.216-.432 12.427 2.535-3.12 3.563-8.317 1.928-12.903-1.757-4.93-6.332-8.176-10.592-8.627 4.366 1.114 7.378 4.497 9.096 9.103z" fill="url(#e)" stroke="#4d4d4d" stroke-width=".212" stroke-linecap="round" stroke-linejoin="round" transform="translate(0 -266.573)"/><path d="M10.59 284.508a17.8 17.8 0 00-1.153-2.49c-1.369-2.097-1.741-1.087-3.078-2.285a1.307 1.307 0 01-.046-.044c-.15.242-.435.953.5 1.95.042.046.186.515.04.903-.241.647-.121 2.037.603 2.451-.021.196-.127.538-.134.785-.018.63.126 1.063.14 1.401.012.34-.167 1.03.032 1.219.269.255.673-.024.772-.129.184-.197.304-.239.334-.223.392.372.249.683.267.864.052.557.705.358.705.358s-.306.397.05.61c.132.08.208-.244.602.085.27.226.04.414.486 1.006.327.435.702.355.877.282.095-2.187-.152-4.477-.996-6.743z" fill="url(#f)" stroke="#4d4d4d" stroke-width=".212" stroke-linecap="round" stroke-linejoin="round" transform="translate(0 -266.573)"/><path d="M1.987 275.42c3.542 1.183 6.886 4.482 8.604 9.088 1.624 4.358 1.037 8.809.06 12.441 1.627-3.211 2.056-8.069.432-12.427-1.718-4.606-4.73-7.99-9.096-9.103z" fill="url(#g)" stroke="#4d4d4d" stroke-width=".212" stroke-linecap="round" stroke-linejoin="round" transform="translate(0 -266.573)"/><path d="M6.078 277.827c-.098.375-.446 1.254.281 1.906 1.338 1.2 1.71.185 3.084 2.293-.93-1.66-2.084-3.078-3.365-4.199z" fill="url(#h)" stroke="#4d4d4d" stroke-width=".212" stroke-linecap="round" stroke-linejoin="round" transform="translate(0 -266.573)"/><path d="M9.9 22.465c-.844-.505-1.033-.128-1.033-.128.052.557.705.358.705.358s.16-.145.327-.23zM8.164 19.074a.432.432 0 00.568.228.437.437 0 00.197-.583.465.465 0 00-.128-.166c-.248.043-.533.248-.68.34a.47.47 0 00.043.181z" fill="none" stroke="#4d4d4d" stroke-width=".212" stroke-linecap="round" stroke-linejoin="round"/><path d="M8.487 19.011h-.004c-.07-.002-.127-.057-.125-.122.002-.064.058-.114.128-.114.074.002.13.057.129.122-.002.064-.058.114-.128.114z" fill="none" stroke="#4d4d4d" stroke-width=".212" stroke-linecap="round" stroke-linejoin="round"/><path d="M8.486 18.702h.006a.196.196 0 01.196.197.196.196 0 01-.2.186H8.48a.197.197 0 01-.196-.198.196.196 0 01.2-.185zm0 .146h0c-.03 0-.054.02-.055.043 0 .025.024.046.054.047.032 0 .056-.02.057-.044 0-.024-.024-.045-.054-.046zM7.171 16.61c.409.597-.159 1.119.653 1.46.287.121.668-1.468 1.968.012-.53-2.607-2.303-2.41-3.067-3.086M8.091 18.378s-.347-.137-.267-.308M8.667 20.408c.174.065.332.13.412.223.18.21.103.484-.063.629-.176.155-.295.15-.416.213M10.35 21.02c-.272-.647-.905-.432-1.213-.606-.498-.28-.483-.863-.483-.863" fill="none" stroke="#4d4d4d" stroke-width=".212" stroke-linecap="round" stroke-linejoin="round"/><path d="M8.973 18.554c-.362-.085-.938.448-.95.378-.032-.188-.002-.443.068-.554.07-.11.806-.409 1.02-.203.225.217.345.46.827.294-.113.29-.602.17-.965.085zM9.235 19.335s-.72.567-1.053-.222M9.797 21.613s.222.57.934.71c-.545.015-.832.142-.832.142" fill="none" stroke="#4d4d4d" stroke-width=".212" stroke-linecap="round" stroke-linejoin="round"/></svg>